<svg width="34" height="33" viewBox="0 0 34 33" fill="none" xmlns="http://www.w3.org/2000/svg">
<path fill-rule="evenodd" clip-rule="evenodd" d="M17.0421 32.3874C25.9342 32.3874 33.2965 25.1463 33.2965 16.4007C33.2965 7.67075 25.9183 0.414062 17.0261 0.414062C8.14992 0.414062 0.787598 7.67075 0.787598 16.4007C0.787598 25.1463 8.16585 32.3874 17.0421 32.3874ZM23.6397 23.9708C23.2731 23.9708 22.9863 23.8611 22.6835 23.5633L18.7474 19.6921C17.7753 20.319 16.6279 20.6951 15.3849 20.6951C12.0066 20.6951 9.24967 17.9837 9.24967 14.661C9.24967 11.3539 12.0066 8.64246 15.3849 8.64246C18.7633 8.64246 21.5043 11.3539 21.5043 14.661C21.5043 15.9618 21.0899 17.153 20.3728 18.1247L24.3568 22.043C24.5799 22.2625 24.7233 22.5602 24.7233 22.858C24.7233 23.5163 24.2771 23.9708 23.6397 23.9708ZM15.3849 18.9554C17.7593 18.9554 19.7194 17.0119 19.7194 14.6609C19.7194 12.3413 17.7593 10.3978 15.3849 10.3978C12.9945 10.3978 11.0185 12.3413 11.0185 14.6609C11.0185 17.0119 12.9945 18.9554 15.3849 18.9554Z" fill="#FE8F7C"/>
</svg>
