<svg width="37" height="34" viewBox="0 0 37 34" fill="none" xmlns="http://www.w3.org/2000/svg">
<g clip-path="url(#clip0)">
<path d="M18.6668 11.3039C16.0863 11.3039 13.9868 13.364 13.9868 15.8961C13.9868 18.4282 16.0863 20.4883 18.6668 20.4883C21.2473 20.4883 23.3468 18.4282 23.3468 15.8961C23.3468 13.364 21.2473 11.3039 18.6668 11.3039Z" fill="#FE8F7C"/>
<path d="M31.9867 4.59221H26.5868C26.5868 2.0559 24.4915 0 21.9067 0H15.4267C12.8419 0 10.7467 2.0559 10.7467 4.59221H5.34675C2.76195 4.59221 0.666748 6.6481 0.666748 9.18442V22.6078C0.666748 25.1441 2.76195 27.2 5.34675 27.2H31.9867C34.5715 27.2 36.6667 25.1441 36.6667 22.6078V9.18442C36.6667 6.6481 34.5715 4.59221 31.9867 4.59221ZM18.6667 24.0208C14.1009 24.0208 10.3867 20.376 10.3867 15.8961C10.3867 11.4162 14.1009 7.77143 18.6667 7.77143C23.2326 7.77143 26.9467 11.4162 26.9467 15.8961C26.9467 20.376 23.2326 24.0208 18.6667 24.0208Z" fill="#FE8F7C"/>
</g>
<defs>
<clipPath id="clip0">
<rect width="36" height="34" fill="white" transform="translate(0.666748)"/>
</clipPath>
</defs>
</svg>
