<svg width="15" height="15" viewBox="0 0 15 15" fill="none" xmlns="http://www.w3.org/2000/svg">
<g clip-path="url(#clip0)">
<path d="M13.2831 4.46519C12.6571 3.39269 11.8081 2.54359 10.7356 1.91769C9.66308 1.29177 8.49216 0.978889 7.22206 0.978889C5.95211 0.978889 4.78081 1.29187 3.70846 1.91769C2.63596 2.54355 1.78693 3.39269 1.16097 4.46519C0.535114 5.53765 0.222168 6.7088 0.222168 7.97859C0.222168 9.50389 0.667181 10.8755 1.55743 12.0937C2.44758 13.312 3.59753 14.1551 5.00717 14.6229C5.17126 14.6534 5.29273 14.6319 5.37171 14.5592C5.45072 14.4863 5.49018 14.3951 5.49018 14.2859C5.49018 14.2676 5.48861 14.1036 5.48558 13.7937C5.48245 13.4838 5.48098 13.2134 5.48098 12.9827L5.27134 13.0189C5.13768 13.0434 4.96906 13.0538 4.76548 13.0508C4.562 13.048 4.35076 13.0267 4.13206 12.987C3.91325 12.9477 3.70974 12.8566 3.52136 12.7138C3.33308 12.571 3.19941 12.3841 3.1204 12.1533L3.02926 11.9436C2.96851 11.804 2.87287 11.6489 2.74221 11.4788C2.61154 11.3087 2.47941 11.1933 2.34575 11.1325L2.28193 11.0868C2.23941 11.0565 2.19995 11.0199 2.16347 10.9774C2.12701 10.9349 2.09971 10.8924 2.08149 10.8498C2.06323 10.8072 2.07836 10.7722 2.12704 10.7448C2.17572 10.7174 2.2637 10.7041 2.39137 10.7041L2.57359 10.7313C2.69512 10.7556 2.84545 10.8284 3.02476 10.95C3.20398 11.0715 3.35131 11.2294 3.46677 11.4238C3.6066 11.673 3.77506 11.8629 3.97263 11.9935C4.17005 12.1242 4.36909 12.1894 4.56957 12.1894C4.77005 12.1894 4.9432 12.1742 5.08909 12.144C5.23482 12.1136 5.37155 12.0679 5.49921 12.0072C5.5539 11.5999 5.70279 11.287 5.94576 11.0683C5.59945 11.0319 5.2881 10.9771 5.01155 10.9042C4.73515 10.8313 4.44954 10.7128 4.15488 10.5486C3.86007 10.3846 3.6155 10.181 3.42112 9.93805C3.22671 9.69498 3.06715 9.37588 2.94268 8.98102C2.81815 8.58599 2.75587 8.13032 2.75587 7.61386C2.75587 6.8785 2.99593 6.25274 3.47597 5.73622C3.2511 5.18337 3.27233 4.56361 3.53972 3.877C3.71593 3.82225 3.97726 3.86333 4.32357 4C4.66994 4.13673 4.92353 4.25385 5.08462 4.35096C5.24571 4.44804 5.37477 4.53031 5.47201 4.59703C6.03722 4.43911 6.62049 4.36013 7.22199 4.36013C7.82349 4.36013 8.40689 4.43911 8.97213 4.59703L9.31847 4.37839C9.55531 4.2325 9.83499 4.0988 10.1568 3.97727C10.4789 3.8558 10.7251 3.82234 10.8954 3.87709C11.1687 4.56373 11.193 5.18346 10.9681 5.73631C11.4481 6.25284 11.6883 6.87876 11.6883 7.61396C11.6883 8.13041 11.6258 8.58753 11.5014 8.98558C11.3769 9.3837 11.216 9.70249 11.0186 9.94261C10.8209 10.1827 10.5748 10.3848 10.2802 10.5487C9.98545 10.7128 9.69973 10.8312 9.42334 10.9042C9.14682 10.9772 8.83547 11.032 8.48916 11.0685C8.80501 11.3418 8.96297 11.7733 8.96297 12.3626V14.2856C8.96297 14.3949 9.00096 14.4861 9.077 14.5589C9.15295 14.6317 9.27288 14.6531 9.43697 14.6226C10.8468 14.1549 11.9968 13.3118 12.8869 12.0935C13.7769 10.8752 14.2221 9.50363 14.2221 7.97833C14.2218 6.7087 13.9086 5.53765 13.2831 4.46519Z" fill="#8CCBBA"/>
</g>
<defs>
<clipPath id="clip0">
<rect width="14" height="14" fill="white" transform="translate(0.222168 0.807617)"/>
</clipPath>
</defs>
</svg>
