<svg width="30" height="30" viewBox="0 0 30 30" fill="none" xmlns="http://www.w3.org/2000/svg">
<path d="M15.1936 12.2772V16.7214C15.1936 17.2742 15.64 17.7222 16.1928 17.7215C17.849 17.7193 21.1379 17.7153 22.7316 17.7153C21.5501 21.2461 19.7138 23.1684 15.1936 23.1684C10.619 23.1684 7.04849 19.5112 7.04849 14.9995C7.04849 10.4888 10.619 6.8316 15.1936 6.8316C17.612 6.8316 19.1742 7.67013 20.6069 8.8385C21.7536 7.70761 21.6578 7.5459 24.5756 4.82792C22.0984 2.60471 18.8065 1.25 15.1936 1.25C7.49344 1.25 1.25 7.40561 1.25 14.9995C1.25 22.5933 7.49344 28.75 15.1936 28.75C26.7035 28.75 29.5168 18.8665 28.5845 12.2772H15.1936Z" fill="#FFFEFC"/>
<mask id="mask0" mask-type="alpha" maskUnits="userSpaceOnUse" x="1" y="1" width="28" height="28">
<path d="M15.1936 12.2772V16.7214C15.1936 17.2742 15.64 17.7222 16.1928 17.7215C17.849 17.7193 21.1379 17.7153 22.7316 17.7153C21.5501 21.2461 19.7138 23.1684 15.1936 23.1684C10.619 23.1684 7.04849 19.5112 7.04849 14.9995C7.04849 10.4888 10.619 6.8316 15.1936 6.8316C17.612 6.8316 19.1742 7.67013 20.6069 8.8385C21.7536 7.70761 21.6578 7.5459 24.5756 4.82792C22.0984 2.60471 18.8065 1.25 15.1936 1.25C7.49344 1.25 1.25 7.40561 1.25 14.9995C1.25 22.5933 7.49344 28.75 15.1936 28.75C26.7035 28.75 29.5168 18.8665 28.5845 12.2772H15.1936Z" fill="white"/>
</mask>
<g mask="url(#mask0)">
</g>
</svg>
