<svg width="16" height="17" viewBox="0 0 16 17" fill="none" xmlns="http://www.w3.org/2000/svg">
<path fill-rule="evenodd" clip-rule="evenodd" d="M7.711 1.88416C7.53559 1.88409 7.37305 1.88401 7.22195 1.88425V1.88208C5.60526 1.88389 5.29515 1.89473 4.49494 1.93088C3.64918 1.96975 3.18998 2.11074 2.88421 2.23004C2.4794 2.38765 2.19026 2.57564 1.88665 2.87931C1.58305 3.18298 1.39474 3.47219 1.23752 3.87709C1.11879 4.18292 0.977467 4.64205 0.938794 5.48798C0.897229 6.40261 0.888916 6.67591 0.888916 8.99284C0.888916 11.3098 0.897229 11.5845 0.938794 12.4992C0.977286 13.3451 1.11879 13.8042 1.23752 14.1097C1.3951 14.5148 1.58305 14.8032 1.88665 15.1069C2.19026 15.4106 2.4794 15.5986 2.88421 15.7558C3.19016 15.8746 3.64918 16.0159 4.49494 16.055C5.40936 16.0966 5.68387 16.1056 8.00012 16.1056C10.3162 16.1056 10.5909 16.0966 11.5053 16.055C12.3511 16.0163 12.8104 15.8753 13.1158 15.756C13.5208 15.5988 13.8091 15.4108 14.1127 15.1071C14.4163 14.8036 14.6046 14.5153 14.7618 14.1104C14.8805 13.8049 15.0219 13.3458 15.0605 12.4999C15.1021 11.5852 15.1111 11.3105 15.1111 8.99501C15.1111 6.67953 15.1021 6.40478 15.0605 5.49015C15.022 4.64421 14.8805 4.18509 14.7618 3.87962C14.6042 3.47472 14.4163 3.18551 14.1127 2.88184C13.8093 2.57817 13.5207 2.39019 13.1158 2.23293C12.8101 2.11417 12.3511 1.97282 11.5053 1.93414C10.5907 1.89256 10.3162 1.88425 8.00012 1.88425L7.711 1.88416ZM11.5895 4.36513C11.5895 3.79027 12.0558 3.32456 12.6304 3.32456V3.3242C13.2051 3.3242 13.6714 3.79045 13.6714 4.36513C13.6714 4.93981 13.2051 5.40606 12.6304 5.40606C12.0558 5.40606 11.5895 4.93981 11.5895 4.36513ZM7.99994 4.54078C5.53992 4.54088 3.54545 6.53585 3.54545 8.99642C3.54545 11.4571 5.54002 13.4512 8.00012 13.4512C10.4602 13.4512 12.4541 11.4571 12.4541 8.99642C12.4541 6.53579 10.46 4.54078 7.99994 4.54078ZM10.8916 8.9972C10.8916 7.39985 9.59693 6.1051 8.00012 6.1051C6.40312 6.1051 5.10865 7.39985 5.10865 8.9972C5.10865 10.5944 6.40312 11.8893 8.00012 11.8893C9.59693 11.8893 10.8916 10.5944 10.8916 8.9972Z" fill="#FFFEFC"/>
<mask id="mask0" mask-type="alpha" maskUnits="userSpaceOnUse" x="0" y="1" width="16" height="16">
<path fill-rule="evenodd" clip-rule="evenodd" d="M7.711 1.88416C7.53559 1.88409 7.37305 1.88401 7.22195 1.88425V1.88208C5.60526 1.88389 5.29515 1.89473 4.49494 1.93088C3.64918 1.96975 3.18998 2.11074 2.88421 2.23004C2.4794 2.38765 2.19026 2.57564 1.88665 2.87931C1.58305 3.18298 1.39474 3.47219 1.23752 3.87709C1.11879 4.18292 0.977467 4.64205 0.938794 5.48798C0.897229 6.40261 0.888916 6.67591 0.888916 8.99284C0.888916 11.3098 0.897229 11.5845 0.938794 12.4992C0.977286 13.3451 1.11879 13.8042 1.23752 14.1097C1.3951 14.5148 1.58305 14.8032 1.88665 15.1069C2.19026 15.4106 2.4794 15.5986 2.88421 15.7558C3.19016 15.8746 3.64918 16.0159 4.49494 16.055C5.40936 16.0966 5.68387 16.1056 8.00012 16.1056C10.3162 16.1056 10.5909 16.0966 11.5053 16.055C12.3511 16.0163 12.8104 15.8753 13.1158 15.756C13.5208 15.5988 13.8091 15.4108 14.1127 15.1071C14.4163 14.8036 14.6046 14.5153 14.7618 14.1104C14.8805 13.8049 15.0219 13.3458 15.0605 12.4999C15.1021 11.5852 15.1111 11.3105 15.1111 8.99501C15.1111 6.67953 15.1021 6.40478 15.0605 5.49015C15.022 4.64421 14.8805 4.18509 14.7618 3.87962C14.6042 3.47472 14.4163 3.18551 14.1127 2.88184C13.8093 2.57817 13.5207 2.39019 13.1158 2.23293C12.8101 2.11417 12.3511 1.97282 11.5053 1.93414C10.5907 1.89256 10.3162 1.88425 8.00012 1.88425L7.711 1.88416ZM11.5895 4.36513C11.5895 3.79027 12.0558 3.32456 12.6304 3.32456V3.3242C13.2051 3.3242 13.6714 3.79045 13.6714 4.36513C13.6714 4.93981 13.2051 5.40606 12.6304 5.40606C12.0558 5.40606 11.5895 4.93981 11.5895 4.36513ZM7.99994 4.54078C5.53992 4.54088 3.54545 6.53585 3.54545 8.99642C3.54545 11.4571 5.54002 13.4512 8.00012 13.4512C10.4602 13.4512 12.4541 11.4571 12.4541 8.99642C12.4541 6.53579 10.46 4.54078 7.99994 4.54078ZM10.8916 8.9972C10.8916 7.39985 9.59693 6.1051 8.00012 6.1051C6.40312 6.1051 5.10865 7.39985 5.10865 8.9972C5.10865 10.5944 6.40312 11.8893 8.00012 11.8893C9.59693 11.8893 10.8916 10.5944 10.8916 8.9972Z" fill="white"/>
</mask>
<g mask="url(#mask0)">
</g>
</svg>
