<svg width="17" height="16" viewBox="0 0 17 16" fill="none" xmlns="http://www.w3.org/2000/svg">
<path fill-rule="evenodd" clip-rule="evenodd" d="M4.9731 2.57991C4.95337 1.71209 4.31296 1.05111 3.27303 1.05111C2.23309 1.05111 1.55322 1.71209 1.55322 2.57991C1.55322 3.42976 2.213 4.10978 3.23357 4.10978H3.25299C4.31296 4.10978 4.9731 3.42976 4.9731 2.57991ZM4.77238 5.31784H1.73248V14.1687H4.77238V5.31784ZM12.2359 5.11001C14.2363 5.11001 15.7359 6.37529 15.7359 9.09388L15.7358 14.1687H12.696V9.43348C12.696 8.2441 12.2561 7.4325 11.1557 7.4325C10.3158 7.4325 9.81561 7.97963 9.59591 8.50809C9.51553 8.69748 9.4958 8.96136 9.4958 9.22588V14.1689H6.45553C6.45553 14.1689 6.4956 6.14859 6.45553 5.31808H9.4958V6.57172C9.89927 5.96907 10.6219 5.11001 12.2359 5.11001Z" fill="#8CCBBA"/>
<mask id="mask0" mask-type="alpha" maskUnits="userSpaceOnUse" x="1" y="1" width="15" height="14">
<path fill-rule="evenodd" clip-rule="evenodd" d="M4.9731 2.57991C4.95337 1.71209 4.31296 1.05111 3.27303 1.05111C2.23309 1.05111 1.55322 1.71209 1.55322 2.57991C1.55322 3.42976 2.213 4.10978 3.23357 4.10978H3.25299C4.31296 4.10978 4.9731 3.42976 4.9731 2.57991ZM4.77238 5.31784H1.73248V14.1687H4.77238V5.31784ZM12.2359 5.11001C14.2363 5.11001 15.7359 6.37529 15.7359 9.09388L15.7358 14.1687H12.696V9.43348C12.696 8.2441 12.2561 7.4325 11.1557 7.4325C10.3158 7.4325 9.81561 7.97963 9.59591 8.50809C9.51553 8.69748 9.4958 8.96136 9.4958 9.22588V14.1689H6.45553C6.45553 14.1689 6.4956 6.14859 6.45553 5.31808H9.4958V6.57172C9.89927 5.96907 10.6219 5.11001 12.2359 5.11001Z" fill="white"/>
</mask>
<g mask="url(#mask0)">
</g>
</svg>
