<svg width="16" height="17" viewBox="0 0 17 23" fill="none" xmlns="http://www.w3.org/2000/svg">
<path fill-rule="evenodd" clip-rule="evenodd" d="M0 9.08512C0 4.60757 3.61441 0.993164 8.09195 0.993164C12.5695 0.993164 16.1839 4.60757 16.1839 9.08512C16.1839 14.4798 8.09195 22.5717 8.09195 22.5717C8.09195 22.5717 0 14.4798 0 9.08512ZM13.4866 9.08512C13.4866 6.11807 11.086 3.69048 8.09195 3.69048C5.1249 3.69048 2.69732 6.11807 2.69732 9.08512C2.69732 12.0791 5.1249 14.4798 8.09195 14.4798C11.086 14.4798 13.4866 12.0791 13.4866 9.08512Z" fill="#4F4F4F"/>
<mask id="mask0" mask-type="alpha" maskUnits="userSpaceOnUse" x="0" y="0" width="17" height="23">
<path fill-rule="evenodd" clip-rule="evenodd" d="M0 9.08512C0 4.60757 3.61441 0.993164 8.09195 0.993164C12.5695 0.993164 16.1839 4.60757 16.1839 9.08512C16.1839 14.4798 8.09195 22.5717 8.09195 22.5717C8.09195 22.5717 0 14.4798 0 9.08512ZM13.4866 9.08512C13.4866 6.11807 11.086 3.69048 8.09195 3.69048C5.1249 3.69048 2.69732 6.11807 2.69732 9.08512C2.69732 12.0791 5.1249 14.4798 8.09195 14.4798C11.086 14.4798 13.4866 12.0791 13.4866 9.08512Z" fill="white"/>
</mask>
<g mask="url(#mask0)">
</g>
</svg>
