<svg width="32" height="33" viewBox="0 0 32 33" fill="none" xmlns="http://www.w3.org/2000/svg">
<path fill-rule="evenodd" clip-rule="evenodd" d="M16.0199 17.7278C16.4284 17.7278 16.8071 17.5385 17.2455 17.1L25.9139 8.52124C25.5453 8.16255 24.8578 7.99316 23.8714 7.99316H7.82971C6.99275 7.99316 6.40489 8.15258 6.07609 8.48139L14.7944 17.1C15.2228 17.5285 15.6014 17.7278 16.0199 17.7278ZM5.24909 23.5566L12.2935 16.5919L5.22917 9.62722C5.07971 9.90621 5 10.3845 5 11.072V22.072C5 22.7794 5.07971 23.2776 5.24909 23.5566ZM26.7609 23.5466C26.9203 23.2577 27 22.7694 27 22.072V11.072C27 10.4044 26.9203 9.92614 26.7808 9.65711L19.7364 16.5919L26.7609 23.5466ZM24.1703 25.1607C25.0072 25.1607 25.5851 25.0013 25.9139 24.6825L18.7301 17.5683L18.0725 18.2359C17.385 18.8935 16.7373 19.1924 16.0199 19.1924C15.2926 19.1924 14.6449 18.8935 13.9674 18.2359L13.2998 17.5683L6.13587 24.6725C6.51449 25.0013 7.1721 25.1607 8.12862 25.1607H24.1703Z" fill="#4F4F4F"/>
</svg>
