<svg width="16" height="17" viewBox="0 0 16 17" fill="none" xmlns="http://www.w3.org/2000/svg">
<path fill-rule="evenodd" clip-rule="evenodd" d="M11.0003 13.5024C11.7644 13.5024 12.4338 13.2358 12.9728 12.6433C13.2868 12.2937 13.4822 11.8849 13.4822 11.482C13.4822 11.1858 13.3697 10.9014 13.0913 10.7L11.2728 9.40834C10.9943 9.21875 10.7633 9.12395 10.5501 9.12395C10.2835 9.12395 10.0407 9.278 9.76817 9.54462L9.3476 9.95935C9.28244 10.0245 9.19952 10.0541 9.12251 10.0541C9.03366 10.0541 8.9448 10.0186 8.88557 9.98898C8.51831 9.79346 7.89041 9.2543 7.30399 8.67367C6.72348 8.09303 6.18444 7.465 5.99488 7.09766C5.96527 7.03249 5.92973 6.94954 5.92973 6.86067C5.92973 6.78365 5.95342 6.70662 6.01858 6.64145L6.43915 6.20894C6.69978 5.9364 6.85972 5.6994 6.85972 5.42686C6.85972 5.21357 6.75902 4.9825 6.56354 4.70403L5.28998 2.90881C5.08266 2.62442 4.79241 2.5 4.47254 2.5C4.08158 2.5 3.67878 2.67774 3.32929 3.01546C2.75471 3.56647 2.5 4.24782 2.5 5.00028C2.5 6.7007 3.79725 8.76254 5.50915 10.4689C7.22106 12.1812 9.30022 13.5024 11.0003 13.5024Z" fill="#4F4F4F"/>
</svg>
