<svg width="16" height="17" viewBox="0 0 16 17" fill="none" xmlns="http://www.w3.org/2000/svg">
<path fill-rule="evenodd" clip-rule="evenodd" d="M7.79462 5.8982L7.82545 6.40666L7.31163 6.3444C5.44133 6.10573 3.8074 5.29634 2.42009 3.93697L1.74185 3.26247L1.56715 3.76056C1.19721 4.87088 1.43356 6.04347 2.20429 6.83211C2.61534 7.26794 2.52285 7.3302 1.81379 7.07078C1.56715 6.98777 1.35135 6.92551 1.3308 6.95664C1.25886 7.02927 1.5055 7.97357 1.70075 8.34714C1.96793 8.86598 2.51258 9.37445 3.10861 9.67538L3.61215 9.91405L3.01612 9.92442C2.44064 9.92442 2.42009 9.9348 2.48175 10.1527C2.68728 10.8272 3.49911 11.5432 4.40342 11.8545L5.04056 12.0724L4.48564 12.4045C3.66353 12.8818 2.69755 13.1516 1.73158 13.1724C1.26914 13.1828 0.888916 13.2243 0.888916 13.2554C0.888916 13.3592 2.14263 13.9403 2.87225 14.1686C5.06111 14.8431 7.66102 14.5525 9.61353 13.4007C11.0008 12.5809 12.3881 10.9517 13.0356 9.37445C13.3849 8.53392 13.7343 6.99814 13.7343 6.26139C13.7343 5.78405 13.7652 5.72179 14.3406 5.15106C14.6798 4.819 14.9983 4.45581 15.06 4.35204C15.1628 4.15488 15.1525 4.15488 14.6284 4.33129C13.7549 4.64259 13.6316 4.60109 14.0632 4.13413C14.3818 3.80207 14.762 3.20021 14.762 3.0238C14.762 2.99267 14.6078 3.04455 14.4331 3.13795C14.2482 3.24171 13.8371 3.39737 13.5288 3.49076L12.9739 3.66717L12.4704 3.32473C12.1929 3.13795 11.8024 2.93041 11.5969 2.86815C11.0728 2.72287 10.2712 2.74362 9.7985 2.90965C8.51396 3.37661 7.70213 4.58033 7.79462 5.8982Z" fill="#FFFEFC"/>
<mask id="mask0" mask-type="alpha" maskUnits="userSpaceOnUse" x="0" y="2" width="16" height="13">
<path fill-rule="evenodd" clip-rule="evenodd" d="M7.79462 5.8982L7.82545 6.40666L7.31163 6.3444C5.44133 6.10573 3.8074 5.29634 2.42009 3.93697L1.74185 3.26247L1.56715 3.76056C1.19721 4.87088 1.43356 6.04347 2.20429 6.83211C2.61534 7.26794 2.52285 7.3302 1.81379 7.07078C1.56715 6.98777 1.35135 6.92551 1.3308 6.95664C1.25886 7.02927 1.5055 7.97357 1.70075 8.34714C1.96793 8.86598 2.51258 9.37445 3.10861 9.67538L3.61215 9.91405L3.01612 9.92442C2.44064 9.92442 2.42009 9.9348 2.48175 10.1527C2.68728 10.8272 3.49911 11.5432 4.40342 11.8545L5.04056 12.0724L4.48564 12.4045C3.66353 12.8818 2.69755 13.1516 1.73158 13.1724C1.26914 13.1828 0.888916 13.2243 0.888916 13.2554C0.888916 13.3592 2.14263 13.9403 2.87225 14.1686C5.06111 14.8431 7.66102 14.5525 9.61353 13.4007C11.0008 12.5809 12.3881 10.9517 13.0356 9.37445C13.3849 8.53392 13.7343 6.99814 13.7343 6.26139C13.7343 5.78405 13.7652 5.72179 14.3406 5.15106C14.6798 4.819 14.9983 4.45581 15.06 4.35204C15.1628 4.15488 15.1525 4.15488 14.6284 4.33129C13.7549 4.64259 13.6316 4.60109 14.0632 4.13413C14.3818 3.80207 14.762 3.20021 14.762 3.0238C14.762 2.99267 14.6078 3.04455 14.4331 3.13795C14.2482 3.24171 13.8371 3.39737 13.5288 3.49076L12.9739 3.66717L12.4704 3.32473C12.1929 3.13795 11.8024 2.93041 11.5969 2.86815C11.0728 2.72287 10.2712 2.74362 9.7985 2.90965C8.51396 3.37661 7.70213 4.58033 7.79462 5.8982Z" fill="white"/>
</mask>
<g mask="url(#mask0)">
</g>
</svg>
