<svg width="647" height="542" viewBox="0 0 647 542" fill="none" xmlns="http://www.w3.org/2000/svg">
<path d="M643.051 419.541C652.124 393.499 641.473 364.597 634.077 338.457C629.639 322.971 624.511 307.681 620.862 291.997C617.213 276.609 616.227 261.122 614.649 245.438C613.169 230.938 610.901 216.043 603.899 203.022C597.686 191.481 588.416 181.814 577.863 174.12C553.603 156.562 524.017 150.15 495.713 142.456C480.229 138.313 465.239 133.184 450.446 127.167C435.456 121.051 420.663 114.245 405.673 108.03C376.777 96.1935 346.303 85.9348 314.646 86.0334C299.36 86.1321 284.567 89.0913 269.971 93.9247C255.277 98.7582 241.174 104.973 226.381 109.411C210.405 114.245 194.132 115.922 177.564 115.33C160.897 114.738 144.329 112.469 127.761 110.694C98.6682 107.636 67.5042 106.452 40.4823 119.572C18.9832 130.028 1.13291 151.926 0.0480935 176.389C-0.543627 189.015 4.38738 200.359 11.3894 210.716C18.7859 221.567 28.1548 231.431 32.79 243.86C38.4113 258.656 35.8472 274.735 31.9024 289.63C27.859 304.919 22.5335 319.814 19.5749 335.399C14.1508 364.301 14.6439 395.669 27.859 422.599C38.6086 444.497 57.5436 463.436 80.9166 471.229C110.7 481.192 140.187 468.861 169.379 462.943C201.332 456.531 234.074 454.46 266.52 456.729C298.768 458.997 329.932 466.494 360.899 475.372C390.978 484.052 421.156 493.127 452.419 495.593C484.47 498.059 515.733 491.549 546.009 481.685C560.901 476.851 575.595 471.327 590.191 465.705C601.532 461.365 612.873 456.334 622.735 449.133C632.104 442.623 637.923 434.337 643.051 419.541Z" fill="#FFE1C3"/>
<g clip-path="url(#clip0)">
<path opacity="0.28" d="M74.3672 393.575C74.3779 394.622 74.0774 395.648 73.5037 396.523C72.9301 397.399 72.1092 398.084 71.1454 398.492C70.1816 398.9 69.1183 399.012 68.0905 398.814C67.0627 398.617 66.1168 398.118 65.3729 397.382C64.6291 396.646 64.1208 395.705 63.9126 394.679C63.7045 393.654 63.8058 392.589 64.2038 391.621C64.6018 390.653 65.2785 389.825 66.148 389.243C67.0174 388.66 68.0404 388.349 69.087 388.349C70.4789 388.346 71.8155 388.894 72.8048 389.873C73.7941 390.852 74.3557 392.183 74.3672 393.575Z" fill="#FF9830"/>
<path d="M98.7663 406.343C100.469 406.343 101.85 404.962 101.85 403.259C101.85 401.556 100.469 400.175 98.7663 400.175C97.0632 400.175 95.6826 401.556 95.6826 403.259C95.6826 404.962 97.0632 406.343 98.7663 406.343Z" stroke="#FFF4E6" stroke-miterlimit="10"/>
<path d="M456.724 198.317C456.724 199.362 456.414 200.383 455.834 201.252C455.253 202.121 454.428 202.797 453.462 203.197C452.497 203.596 451.434 203.7 450.41 203.495C449.385 203.291 448.445 202.787 447.707 202.047C446.969 201.308 446.466 200.366 446.264 199.341C446.061 198.316 446.168 197.254 446.569 196.289C446.97 195.325 447.649 194.501 448.518 193.922C449.388 193.343 450.41 193.035 451.455 193.037C452.148 193.037 452.834 193.174 453.474 193.439C454.114 193.705 454.695 194.094 455.185 194.584C455.674 195.075 456.062 195.657 456.326 196.298C456.59 196.938 456.726 197.625 456.724 198.317Z" fill="#FFF4E6"/>
<path d="M342.108 32.8038C342.108 33.3731 341.939 33.9295 341.623 34.4028C341.307 34.8761 340.857 35.245 340.331 35.4629C339.805 35.6807 339.226 35.7377 338.668 35.6267C338.11 35.5156 337.597 35.2415 337.195 34.839C336.792 34.4365 336.518 33.9236 336.407 33.3653C336.296 32.807 336.353 32.2283 336.571 31.7024C336.788 31.1765 337.157 30.727 337.631 30.4108C338.104 30.0945 338.66 29.9257 339.23 29.9257C339.993 29.9257 340.725 30.229 341.265 30.7687C341.805 31.3085 342.108 32.0405 342.108 32.8038Z" fill="#FFF4E6"/>
<path opacity="0.28" d="M153.05 492.156C153.052 493.154 152.758 494.13 152.206 494.96C151.653 495.791 150.866 496.439 149.945 496.822C149.024 497.205 148.01 497.307 147.031 497.113C146.052 496.92 145.153 496.441 144.446 495.736C143.74 495.031 143.259 494.133 143.063 493.155C142.868 492.176 142.967 491.162 143.349 490.24C143.73 489.318 144.376 488.53 145.206 487.975C146.035 487.421 147.01 487.125 148.008 487.125C149.343 487.125 150.624 487.655 151.569 488.598C152.515 489.541 153.047 490.821 153.05 492.156Z" fill="#FF9830"/>
<path opacity="0.28" d="M541.521 173.843C541.521 174.485 541.33 175.112 540.973 175.646C540.617 176.18 540.11 176.596 539.517 176.841C538.924 177.087 538.271 177.151 537.641 177.026C537.012 176.901 536.433 176.592 535.979 176.138C535.525 175.684 535.216 175.105 535.091 174.476C534.966 173.846 535.03 173.193 535.276 172.6C535.521 172.007 535.937 171.5 536.471 171.144C537.005 170.787 537.633 170.597 538.275 170.597C539.135 170.597 539.961 170.939 540.57 171.547C541.179 172.156 541.521 172.982 541.521 173.843Z" fill="#FF9830"/>
<path d="M177.211 427.507C178.699 427.507 179.905 426.3 179.905 424.812C179.905 423.325 178.699 422.118 177.211 422.118C175.723 422.118 174.517 423.325 174.517 424.812C174.517 426.3 175.723 427.507 177.211 427.507Z" stroke="#FFF4E6" stroke-miterlimit="10"/>
<path opacity="0.28" d="M342.909 133.906C342.909 134.867 342.624 135.806 342.09 136.605C341.556 137.404 340.797 138.027 339.91 138.394C339.022 138.762 338.045 138.858 337.103 138.671C336.16 138.483 335.295 138.021 334.615 137.341C333.936 136.662 333.473 135.796 333.286 134.854C333.098 133.911 333.194 132.934 333.562 132.047C333.93 131.159 334.553 130.4 335.352 129.866C336.15 129.333 337.09 129.048 338.051 129.048C339.339 129.048 340.575 129.56 341.486 130.471C342.397 131.382 342.909 132.617 342.909 133.906Z" fill="#FF9830"/>
<path d="M203.168 411.125C198.537 411.883 184.212 443.639 178.802 468.049C172.537 496.354 103.062 724.299 100.108 775.781C107.833 777.945 165.385 777.945 170.265 777.664C185.813 726.279 235.769 510.626 236.992 508.905C235.087 555.074 213.75 750.797 218.262 777.718C222.32 780.109 281.57 779.341 286.255 778.67C291.341 715.254 315.87 450.64 264.615 411.515C238.95 410.93 221.465 408.139 203.168 411.125Z" fill="#FE8F7C"/>
<path d="M254.65 411.439C254.65 411.439 271.497 428.589 279.222 468.092C286.948 507.596 273.661 763.478 273.661 763.478" stroke="white" stroke-width="1.97" stroke-miterlimit="10"/>
<path d="M211.695 414.404C211.695 414.404 123.025 726.496 113.579 760.817" stroke="white" stroke-width="1.85" stroke-miterlimit="10"/>
<path d="M282.836 435.167L276.647 456.569" stroke="white" stroke-width="1.97" stroke-miterlimit="10"/>
<path d="M285.92 444.505L279.222 467" stroke="white" stroke-width="1.97" stroke-miterlimit="10"/>
<path d="M249.759 320.086C245.962 302.72 257.333 302.774 258.556 288.654C259.065 282.973 253.222 277.022 252.897 273.289C252.551 269.221 256.208 264.633 256.868 260.597C257.831 254.755 254.704 241.002 252.94 237.583C248.201 228.224 241.666 222.662 232.382 220.195C191.872 209.375 186.603 253.315 178.153 267.803C178.153 267.803 169.562 291.607 155.301 294.529C132.655 299.16 116.457 350.793 124.02 372.043C133.196 397.871 159.975 420.365 210.201 408.528L215.114 321.265L218.847 315.368L226.853 320.075C226.853 320.075 253.568 337.495 249.759 320.086Z" fill="black" stroke="black" stroke-width="0.98" stroke-miterlimit="10"/>
<path d="M230.575 220.304C222.502 218.12 213.964 218.354 206.023 220.978C198.081 223.601 191.084 228.499 185.9 235.062C180.772 241.7 177.374 249.508 176.01 257.784C174.225 267.392 174.008 277.639 169.02 286.316C162.528 297.645 152.314 296.249 140.943 296.574C135.616 296.83 130.586 299.105 126.877 302.936C118.794 310.78 114.455 322.542 111.804 333.232C111.317 335.223 114.39 336.078 114.877 334.076C117.463 323.602 121.683 311.711 130.025 304.364C136.809 298.37 143.658 300.48 151.968 299.906C158.698 299.441 164.584 297.266 168.956 292.008C179.884 278.861 176.021 260.175 183.151 245.417C191.645 227.845 210.699 218.367 229.753 223.366C230.161 223.478 230.596 223.423 230.963 223.214C231.33 223.005 231.6 222.659 231.712 222.251C231.823 221.844 231.769 221.408 231.56 221.041C231.351 220.674 231.005 220.405 230.597 220.293L230.575 220.304Z" fill="black"/>
<path d="M235.488 271.493C235.488 271.493 240.4 313.94 241.212 317.175C241.212 317.175 228.336 331.631 209.65 321.211C209.65 321.211 211.814 311.051 215.125 285.072L235.488 271.493Z" fill="#E0815E"/>
<path d="M233.4 240.851C224.798 239.109 216.845 249.323 214.086 262.956L213.88 264.038C211.121 277.671 216.531 294.15 223.791 295.416H224.17C230.002 296 239.578 283.893 242.326 270.26L243.852 268.637C246.567 254.971 242.001 242.593 233.4 240.851Z" fill="black"/>
<path d="M201.719 261.658L208.892 260.879L208.027 252.883L200.842 253.662C199.782 253.779 198.812 254.312 198.145 255.143C197.477 255.975 197.167 257.038 197.282 258.098C197.339 258.623 197.499 259.132 197.753 259.596C198.006 260.059 198.349 260.468 198.761 260.799C199.173 261.13 199.647 261.376 200.154 261.523C200.662 261.671 201.193 261.716 201.719 261.658Z" fill="#E0815E"/>
<path d="M250.019 258.314L242.813 258.736L243.278 266.776L250.484 266.354C251.012 266.323 251.529 266.189 252.005 265.959C252.481 265.729 252.907 265.407 253.259 265.012C253.611 264.617 253.881 264.157 254.055 263.657C254.229 263.158 254.302 262.629 254.271 262.101C254.241 261.573 254.107 261.057 253.877 260.581C253.647 260.104 253.325 259.678 252.93 259.327C252.535 258.975 252.075 258.705 251.575 258.531C251.076 258.357 250.547 258.284 250.019 258.314Z" fill="#E0815E"/>
<path d="M250.43 260.435L247.455 260.608L247.649 263.93L250.614 263.757C251.054 263.732 251.467 263.533 251.761 263.204C252.055 262.876 252.207 262.444 252.183 262.004C252.158 261.564 251.959 261.151 251.631 260.857C251.302 260.563 250.87 260.411 250.43 260.435Z" fill="#B8532E" stroke="#B8532E" stroke-width="1.79" stroke-linecap="round" stroke-linejoin="round"/>
<path d="M200.994 255.923L203.947 255.544L204.359 258.844L201.405 259.212C200.967 259.268 200.526 259.147 200.177 258.877C199.828 258.608 199.6 258.211 199.544 257.773C199.516 257.556 199.532 257.336 199.591 257.126C199.649 256.915 199.748 256.718 199.883 256.546C200.018 256.374 200.185 256.231 200.376 256.124C200.567 256.017 200.776 255.948 200.994 255.923Z" fill="#B8532E" stroke="#B8532E" stroke-width="1.79" stroke-linecap="round" stroke-linejoin="round"/>
<path d="M224.96 234.099C211.554 234.272 202.876 245.244 203.049 258.271V259.266C203.212 272.25 213.978 283.806 225.23 283.482H225.328C234.233 282.822 249.424 271.396 249.251 258.358V257.362C249.2 254.234 248.53 251.148 247.279 248.281C246.028 245.414 244.22 242.824 241.961 240.661C239.702 238.497 237.036 236.803 234.118 235.677C231.199 234.551 228.087 234.014 224.96 234.099Z" fill="#E0815E"/>
<path d="M228.098 258.184C228.184 259.169 228.866 259.916 229.613 259.851C230.021 259.748 230.374 259.491 230.598 259.134C230.822 258.778 230.899 258.348 230.814 257.936C230.727 256.951 230.045 256.204 229.299 256.269C228.89 256.372 228.537 256.629 228.314 256.986C228.09 257.342 228.013 257.772 228.098 258.184Z" fill="black"/>
<path d="M217.516 259.104C217.456 259.315 217.446 259.537 217.486 259.752C217.526 259.968 217.616 260.171 217.748 260.346C217.88 260.521 218.051 260.663 218.247 260.761C218.444 260.859 218.66 260.909 218.879 260.909C219.098 260.909 219.315 260.859 219.511 260.761C219.707 260.663 219.878 260.521 220.01 260.346C220.142 260.171 220.232 259.968 220.272 259.752C220.313 259.537 220.302 259.315 220.242 259.104C220.242 258.109 219.604 257.308 218.857 257.319C218.448 257.388 218.08 257.612 217.831 257.944C217.581 258.276 217.468 258.691 217.516 259.104Z" fill="black"/>
<path d="M222.709 264.363L226.302 264.146C226.734 264.146 226.994 263.53 226.789 263.064L224.895 258.65C224.861 258.532 224.79 258.429 224.693 258.355C224.595 258.281 224.476 258.242 224.354 258.242C224.232 258.242 224.113 258.281 224.015 258.355C223.918 258.429 223.847 258.532 223.813 258.65L222.125 263.27C221.92 263.789 222.255 264.384 222.709 264.363Z" fill="#B8532E"/>
<path d="M215.59 253.986C214.508 254.387 216.672 251.887 218.046 251.909C218.347 251.891 218.649 251.933 218.934 252.033C219.219 252.132 219.482 252.287 219.707 252.488C219.932 252.689 220.115 252.932 220.246 253.204C220.377 253.476 220.453 253.771 220.47 254.073C218.903 253.475 217.177 253.445 215.59 253.986Z" fill="black"/>
<path d="M232.902 253.402C233.984 253.813 231.82 251.238 230.478 251.238C229.876 251.19 229.28 251.381 228.818 251.77C228.356 252.159 228.066 252.714 228.011 253.315C229.602 252.776 231.331 252.807 232.902 253.402Z" fill="black"/>
<path d="M222.872 270.746C222.872 270.746 225.122 266.018 231.647 266.018" stroke="#B8532E" stroke-width="0.94" stroke-miterlimit="10" stroke-linecap="round"/>
<path d="M230.327 233.623C230.327 233.623 211.229 259.061 192.9 254.181C192.9 254.235 204.835 215.857 230.327 233.623Z" fill="black" stroke="black" stroke-width="0.98" stroke-miterlimit="10"/>
<path d="M194.686 245.86C194.004 249.777 191.829 256.745 195.768 259.58C199.706 262.415 205.506 258.942 208.871 256.572C217.527 250.426 224.863 242.063 232.188 234.413C233.605 232.931 231.355 230.669 229.926 232.152C225.122 237.183 220.286 242.192 215.244 246.975C212.75 249.447 210.082 251.736 207.258 253.824C205.484 255.079 201.426 258.358 199.165 257.438C195.281 255.858 197.272 249.464 197.758 246.704C198.105 244.703 195.043 243.837 194.686 245.86Z" fill="black"/>
<path d="M227.124 231.459C227.124 231.459 231.614 256.432 246.113 252.872L251.631 251.79C251.631 251.79 245.366 222.9 227.124 231.459Z" fill="black" stroke="black" stroke-width="0.98" stroke-miterlimit="10"/>
<path d="M280.066 418.645C253.914 421.177 238.561 395.155 234.298 341.304C234.298 341.304 240.097 319.729 242.661 308.086L252.183 313.496C255.121 315.164 257.594 317.541 259.379 320.41C261.163 323.279 262.2 326.548 262.397 329.921L263.544 349.105C266.52 377.94 267.991 389.409 274.775 390.924C285.303 393.261 308.317 395.804 319.905 393.672L327.642 384.778L342.281 385.525C342.807 385.548 343.309 385.75 343.703 386.099C344.097 386.448 344.359 386.921 344.445 387.44C344.518 387.893 344.454 388.358 344.261 388.774C344.068 389.19 343.756 389.54 343.363 389.777L330.379 397.633L329.827 410.768C329.827 410.768 290.172 417.693 280.066 418.645Z" fill="#E0815E"/>
<path d="M186.798 319.956C186.798 319.956 196.395 315.292 204.294 311.96C212.106 306.301 211.132 298.759 211.132 298.759C213.112 297.104 240.876 299.041 240.876 299.041C240.389 301.789 244.522 313.626 244.522 313.626C244.014 315.054 259.086 339.659 261.683 353.411C264.139 366.395 275.998 407.955 275.998 413.062L192.944 413.808C192.944 413.808 181.377 337.495 186.798 319.956Z" fill="#F2C94C"/>
<g style="mix-blend-mode:multiply" opacity="0.14">
<path d="M186.798 319.956C181.388 337.452 192.944 413.808 192.944 413.808L275.998 413.062L187.566 319.253" fill="#F2C94C"/>
</g>
<path d="M171.747 367.034C176.04 367.552 180.395 367.119 184.502 365.765C188.609 364.412 192.368 362.172 195.512 359.203C198.657 356.234 201.109 352.61 202.696 348.587C204.283 344.565 204.965 340.242 204.694 335.926L202.086 294.55L158.038 289.14L146.872 329.975C145.749 334.06 145.521 338.339 146.202 342.52C146.883 346.701 148.457 350.687 150.818 354.204C153.179 357.721 156.271 360.688 159.883 362.902C163.495 365.116 167.541 366.525 171.747 367.034Z" fill="#C9704F"/>
<path d="M193.333 332.377C193.333 332.377 230.51 303.661 225.955 300.794C223.023 298.943 213.177 301.454 206.479 303.477C203.493 304.386 200.669 301.616 201.145 298.251C202.584 288.145 205.311 269.675 207.897 256.464C211.63 237.388 206.706 235.289 194.804 266.278C182.902 297.266 197.12 237.378 192.792 236.869C188.464 236.361 181.193 269.816 177.244 270.887C173.294 271.958 181.712 238.135 175.383 235.181C169.053 232.227 165.937 267.803 163.751 269.307C161.565 270.811 163.665 245.979 160.862 245.352C150.951 243.123 149.068 319.025 150.042 324.143C150.042 324.143 153.396 335.785 171.455 338.555C171.455 338.577 182.47 341.585 193.333 332.377Z" fill="#E0815E"/>
<path d="M408.922 427.799L478.072 432.441C478.072 432.441 496.034 441.519 545.492 791.167L508.834 792.249L443.492 527.299C443.306 526.497 442.829 525.792 442.155 525.321C441.48 524.849 440.654 524.644 439.837 524.744C439.02 524.845 438.269 525.245 437.729 525.867C437.189 526.488 436.898 527.288 436.913 528.111L445.461 791.524L407.136 788.029C407.136 788.029 365.155 521.435 383.798 479.237C402.44 437.039 408.922 427.799 408.922 427.799Z" fill="black"/>
<path d="M386.189 474.098C386.189 474.098 409.095 484.247 421.992 464.176C434.89 444.104 438.558 432.982 438.558 432.982" stroke="white" stroke-width="1.02" stroke-miterlimit="10"/>
<path d="M459.451 438.197C459.451 438.197 460.533 480.86 474.08 485.61C487.626 490.36 494.291 489.776 494.291 489.776" stroke="white" stroke-width="1.02" stroke-miterlimit="10"/>
<path d="M474.08 485.61L533.471 790.907" stroke="white" stroke-width="1.02" stroke-miterlimit="10"/>
<path d="M400.136 476.413L422.501 789.219" stroke="white" stroke-width="1.02" stroke-miterlimit="10"/>
<g style="mix-blend-mode:multiply" opacity="0.51">
<path d="M478.234 441.886L420.001 428.902C420.001 428.902 377.576 465.95 380.184 500.596L478.234 441.886Z" fill="#1E3252"/>
</g>
<path d="M420.737 254.181C420.953 247.148 422.847 233.688 433.364 229.003C443.535 224.458 451.39 224.004 463.66 227.51C479.738 232.108 497.288 277.909 497.288 277.909C497.288 277.909 481.232 303.217 422.284 291.413C422.317 291.359 420.456 263.443 420.737 254.181Z" fill="#02022B"/>
<path d="M418.93 289.487C418.054 272.175 418.487 248.641 432.563 236.22C434.576 234.445 431.611 231.502 429.609 233.266C414.667 246.445 413.834 271.06 414.754 289.53C414.883 292.203 419.082 292.213 418.93 289.53V289.487Z" fill="#02022B"/>
<path d="M436.426 274.631C436.426 274.631 431.07 316.374 430.54 319.729C430.54 319.729 448.631 341.304 467.133 322.747C467.133 322.747 464.006 312.631 458.315 286.565L436.426 274.631Z" fill="#F7B27E" stroke="#F7B27E" stroke-width="2.23" stroke-linecap="round" stroke-linejoin="round"/>
<path d="M451.044 332.453C451.044 332.453 449.291 341.304 467.793 322.715C467.793 322.715 466.278 314.329 465.034 309.601L451.044 332.453Z" fill="#02022B"/>
<path d="M459.765 282.832C460.035 288.48 452.602 295.73 447.365 296.303C440.981 297.007 434.825 287.236 433.948 282.659C433.202 278.818 442.767 273.462 448.014 273.203C453.262 272.943 459.483 277.174 459.765 282.832Z" fill="#02022B"/>
<path d="M422.739 259.202H430.086V267.403H422.728C422.19 267.403 421.657 267.297 421.16 267.091C420.663 266.884 420.212 266.582 419.832 266.201C419.452 265.82 419.151 265.368 418.946 264.871C418.741 264.373 418.637 263.84 418.638 263.302C418.638 262.764 418.744 262.231 418.95 261.733C419.156 261.235 419.458 260.783 419.839 260.403C420.22 260.022 420.672 259.72 421.169 259.514C421.667 259.308 422.2 259.202 422.739 259.202Z" fill="#F7B27E" stroke="#F7B27E" stroke-width="2.17" stroke-miterlimit="10"/>
<path d="M422.436 261.387H425.476V264.774H422.447C421.996 264.774 421.564 264.595 421.245 264.276C420.927 263.958 420.748 263.526 420.748 263.075C420.753 262.629 420.933 262.203 421.248 261.888C421.564 261.572 421.99 261.393 422.436 261.387Z" fill="#D46F4C" stroke="#D46F4C" stroke-width="2.15" stroke-miterlimit="10"/>
<path d="M472.143 267.879L464.861 266.895L465.943 258.769L473.236 259.753C474.311 259.901 475.284 260.469 475.941 261.333C476.598 262.197 476.886 263.287 476.741 264.363C476.671 264.896 476.496 265.41 476.226 265.875C475.957 266.34 475.598 266.748 475.171 267.074C474.744 267.401 474.257 267.64 473.737 267.778C473.217 267.916 472.676 267.951 472.143 267.879Z" fill="#F7B27E" stroke="#F7B27E" stroke-width="2.17" stroke-miterlimit="10"/>
<path d="M473.03 262.047L470.022 261.593L469.514 264.936L472.522 265.401C472.965 265.467 473.416 265.354 473.776 265.089C474.137 264.823 474.378 264.426 474.448 263.984C474.516 263.539 474.405 263.086 474.139 262.722C473.874 262.359 473.475 262.116 473.03 262.047Z" fill="#D46F4C" stroke="#D46F4C" stroke-width="2.15" stroke-miterlimit="10"/>
<path d="M452.018 237.691C465.553 239.552 472.9 252.039 471.05 265.575L470.909 266.657C469.048 280.182 456.681 290.807 445.352 289.065H445.255C436.329 287.269 422.457 273.484 424.318 259.948L424.459 258.866C424.861 255.659 425.896 252.564 427.502 249.759C429.109 246.955 431.256 244.497 433.819 242.527C436.382 240.558 439.31 239.117 442.434 238.287C445.558 237.456 448.815 237.254 452.018 237.691Z" fill="#F7B27E" stroke="#F7B27E" stroke-width="2.17" stroke-miterlimit="10"/>
<path d="M451.715 265.109C451.637 265.517 451.721 265.94 451.95 266.287C452.178 266.634 452.532 266.879 452.937 266.97C453.684 267.024 454.333 266.267 454.398 265.282C454.473 264.874 454.387 264.453 454.16 264.107C453.932 263.76 453.579 263.515 453.175 263.421C452.472 263.378 451.78 264.135 451.715 265.109Z" fill="#02022B"/>
<path d="M441.23 264.417C441.122 264.818 441.175 265.246 441.377 265.61C441.579 265.973 441.914 266.244 442.312 266.364C443.048 266.473 443.762 265.769 443.892 264.795C444 264.394 443.947 263.966 443.745 263.603C443.543 263.239 443.208 262.969 442.81 262.848C442.074 262.74 441.36 263.443 441.23 264.417Z" fill="#02022B"/>
<path d="M445.515 270.346L449.053 270.682C449.486 270.682 449.832 270.184 449.691 269.664L448.512 265.066C448.499 264.941 448.445 264.824 448.357 264.733C448.27 264.643 448.155 264.584 448.03 264.566C447.906 264.549 447.779 264.574 447.67 264.637C447.561 264.7 447.477 264.798 447.43 264.914L445.082 269.178C444.822 269.664 445.06 270.303 445.515 270.346Z" fill="#D97570"/>
<path d="M440.116 259.223C438.958 259.277 441.771 257.557 443.037 257.946C443.619 258.085 444.123 258.449 444.44 258.957C444.756 259.466 444.858 260.078 444.725 260.662C443.403 259.66 441.773 259.151 440.116 259.223Z" fill="#02022B"/>
<path d="M456.594 259.883C457.676 260.121 455.209 257.979 453.889 258.184C453.293 258.231 452.739 258.513 452.35 258.967C451.961 259.421 451.767 260.011 451.812 260.608C453.272 259.814 454.965 259.557 456.594 259.883Z" fill="#02022B"/>
<path d="M444.227 277.487C444.455 276.405 446.251 274.566 449.183 273.668C450.795 273.17 456.151 273.213 456.151 273.213" stroke="#D46F4C" stroke-width="0.94" stroke-miterlimit="10"/>
<path d="M436.837 238.849C465.283 250.253 473.117 259.202 473.117 259.202C473.117 259.202 474.328 226.828 439.575 231.881C417.166 235.149 435.095 238.157 436.837 238.849Z" fill="#02022B"/>
<path d="M439.726 237.951C439.726 237.951 432.152 253.943 429.988 256.81C427.553 260.056 422.414 257.665 422.414 257.665C422.414 257.665 420.088 235.127 439.726 237.951Z" fill="#02022B"/>
<path d="M523.884 367.034L505.49 321.752C506.626 322.087 496.542 315.952 488.643 317.056C486.373 317.339 484.174 318.032 482.151 319.101L466.213 314.686C447.819 327.14 431.481 308.952 431.481 308.952C417.415 297.84 380.876 320.854 380.876 320.854L390.798 338.577C390.798 338.577 403.782 387.072 403.847 388.706C404.648 403.919 407.688 428.167 407.894 427.766C408.099 427.366 485.679 440.469 486.295 439.257C486.912 438.045 487.042 428.892 488.524 395.588C488.719 391.206 488.86 374.813 488.849 370.561L523.884 367.034Z" fill="#FE8F7C"/>
<path d="M509.071 376.512C504.903 377.023 500.673 376.609 496.683 375.299C492.693 373.99 489.04 371.818 485.985 368.937C482.929 366.056 480.546 362.537 479.004 358.631C477.463 354.724 476.801 350.526 477.066 346.335L479.598 306.182L522.337 300.956L533.157 340.579C534.242 344.537 534.463 348.682 533.803 352.733C533.143 356.784 531.619 360.646 529.334 364.055C527.049 367.464 524.056 370.341 520.56 372.491C517.063 374.64 513.145 376.012 509.071 376.512Z" fill="#FDB375"/>
<path d="M488.113 342.905C488.113 342.905 452.039 315.033 456.454 312.252C459.299 310.467 468.864 312.901 475.302 314.86C478.202 315.747 480.95 313.053 480.485 309.785C479.089 299.982 476.438 282.053 473.928 269.232C470.303 250.719 475.086 248.674 486.631 278.753C498.176 308.833 484.467 250.708 488.611 250.21C492.755 249.712 499.864 282.183 503.694 283.222C507.524 284.261 499.366 251.433 505.501 248.598C511.636 245.763 514.676 280.246 516.786 281.707C518.896 283.168 516.873 259.072 519.599 258.455C529.218 256.291 531.047 329.953 530.138 334.92C530.138 334.92 526.892 346.227 509.364 348.91C509.353 348.943 498.663 351.821 488.113 342.905Z" fill="#FDBE8B"/>
<path d="M311.909 413.733L374.817 419.727C374.817 419.727 394.293 426.089 463.541 807.581L423.377 810.286L340.323 522.474C340.071 521.615 339.513 520.878 338.755 520.402C337.998 519.925 337.092 519.743 336.209 519.888C335.326 520.033 334.526 520.495 333.961 521.189C333.395 521.882 333.103 522.759 333.138 523.653L353.815 812.287L311.617 810.123C311.617 810.123 254.141 519.271 272.86 472.291C291.579 425.31 311.909 413.733 311.909 413.733Z" fill="#FFBFB5"/>
<path d="M275.197 466.513C275.197 466.513 300.765 476.662 314.063 454.091C327.36 431.521 330.899 419.154 330.899 419.154" stroke="black" stroke-width="1.12" stroke-miterlimit="10"/>
<path d="M358.338 420.073C358.338 420.073 357.072 470.733 372.155 475.374C387.238 480.016 394.498 479.075 394.498 479.075" stroke="black" stroke-width="1.12" stroke-miterlimit="10"/>
<path d="M372.134 475.374L450.373 807.786" stroke="black" stroke-width="1.12" stroke-miterlimit="10"/>
<path d="M290.594 468.46L328.551 810.697" stroke="black" stroke-width="1.12" stroke-miterlimit="10"/>
<g style="mix-blend-mode:multiply" opacity="0.51">
<path d="M374.838 420.517L310.362 415.453C310.362 415.453 265.405 457.911 269.744 495.813L374.838 420.517Z" fill="#F0C03B"/>
</g>
<path d="M359.734 207.99C359.443 204.639 357.886 201.524 355.379 199.281C352.872 197.037 349.604 195.834 346.241 195.915C342.877 195.995 339.671 197.355 337.274 199.717C334.878 202.079 333.472 205.266 333.344 208.629C314.073 219.048 324.688 247.31 324.688 247.31C325.603 248.829 326.657 250.26 327.836 251.584L319.959 313.691C319.959 313.691 347.247 348.142 361.909 319.209C376.57 290.277 362.796 317.337 362.796 317.337L361.13 257.827C369.602 252.493 374.341 243.545 374.341 243.545C376.31 233.807 372.512 215.229 359.734 207.99Z" fill="black"/>
<path d="M335.833 257.124C335.833 257.124 331.58 297.732 331.147 300.999C331.147 300.999 349.184 321.557 366.713 303.098C366.713 303.098 363.467 293.36 357.332 268.204L335.833 257.124Z" fill="#FDCAC6" stroke="#FDCAC6" stroke-width="2.16" stroke-linecap="round" stroke-linejoin="round"/>
<path d="M359.68 265.326C359.82 270.822 352.452 277.682 347.356 278.126C341.145 278.667 335.4 269.059 334.642 264.601C334.004 260.857 343.396 255.869 348.514 255.739C353.631 255.609 359.528 259.84 359.68 265.326Z" fill="black"/>
<path d="M323.952 243.653L331.05 242.982L331.796 250.903L324.699 251.573C324.179 251.623 323.655 251.569 323.157 251.416C322.658 251.262 322.194 251.012 321.792 250.679C321.391 250.347 321.058 249.938 320.814 249.477C320.57 249.016 320.419 248.511 320.371 247.992C320.274 246.943 320.596 245.897 321.267 245.085C321.938 244.272 322.903 243.757 323.952 243.653Z" fill="#FDCAC6" stroke="#FDCAC6" stroke-width="2.16" stroke-linecap="round" stroke-linejoin="round"/>
<path d="M323.866 245.785L326.798 245.514L327.112 248.76L324.179 249.042C323.964 249.062 323.747 249.041 323.54 248.977C323.333 248.914 323.141 248.811 322.974 248.673C322.807 248.535 322.669 248.366 322.568 248.175C322.466 247.984 322.404 247.775 322.383 247.559C322.347 247.128 322.482 246.7 322.76 246.368C323.037 246.035 323.435 245.826 323.866 245.785Z" fill="#E09691" stroke="#E09691" stroke-width="2.16" stroke-linecap="round" stroke-linejoin="round"/>
<path d="M372.48 247.44L365.349 247.17L365.641 239.217L372.772 239.487C373.826 239.527 374.822 239.983 375.54 240.756C376.258 241.529 376.64 242.555 376.602 243.61C376.56 244.663 376.103 245.657 375.33 246.375C374.558 247.092 373.533 247.475 372.48 247.44Z" fill="#FDCAC6" stroke="#FDCAC6" stroke-width="2.16" stroke-linecap="round" stroke-linejoin="round"/>
<path d="M372.794 241.716L369.851 241.565L369.677 244.811L372.61 244.973C372.826 244.985 373.042 244.954 373.246 244.882C373.45 244.81 373.638 244.698 373.799 244.553C373.959 244.409 374.09 244.234 374.183 244.038C374.276 243.843 374.33 243.631 374.341 243.415C374.356 242.986 374.202 242.568 373.913 242.251C373.624 241.933 373.222 241.742 372.794 241.716Z" fill="#E09691" stroke="#E09691" stroke-width="2.16" stroke-linecap="round" stroke-linejoin="round"/>
<path d="M350.223 220.163C363.456 220.693 371.722 232.065 371.192 245.309V246.326C370.662 259.559 359.701 270.974 348.6 270.346H348.503C339.717 269.437 325.034 257.416 325.564 244.173V243.166C325.655 240.031 326.367 236.945 327.658 234.087C328.95 231.228 330.796 228.655 333.09 226.515C335.384 224.376 338.079 222.712 341.02 221.622C343.961 220.532 347.089 220.036 350.223 220.163Z" fill="#FDCAC6" stroke="#FDCAC6" stroke-width="2.16" stroke-linecap="round" stroke-linejoin="round"/>
<path d="M352.701 246.672C352.701 247.624 353.339 248.382 354.064 248.36C354.46 248.283 354.811 248.058 355.045 247.729C355.278 247.401 355.377 246.995 355.319 246.596C355.319 245.644 354.681 244.887 353.956 244.908C353.559 244.982 353.206 245.208 352.972 245.537C352.738 245.866 352.641 246.273 352.701 246.672Z" fill="#03022B"/>
<path d="M342.508 246.975C342.444 247.374 342.537 247.783 342.767 248.115C342.996 248.448 343.346 248.679 343.742 248.76C344.467 248.76 345.083 248.046 345.127 247.094C345.17 246.142 344.618 245.341 343.893 245.319C343.168 245.298 342.552 246.023 342.508 246.975Z" fill="#03022B"/>
<path d="M347.204 252.298H350.645C351.067 252.298 351.348 251.747 351.175 251.216L349.606 246.888C349.614 246.745 349.563 246.604 349.467 246.498C349.371 246.391 349.236 246.327 349.092 246.32C348.949 246.313 348.808 246.363 348.702 246.46C348.595 246.556 348.532 246.691 348.524 246.834L346.653 251.162C346.436 251.703 346.761 252.298 347.204 252.298Z" fill="#D97871"/>
<path d="M339.046 242.701C337.964 243.101 340.063 240.656 341.361 240.624C341.649 240.594 341.94 240.622 342.217 240.707C342.493 240.791 342.75 240.931 342.972 241.116C343.194 241.302 343.377 241.53 343.509 241.787C343.641 242.045 343.72 242.326 343.742 242.614C342.215 242.092 340.553 242.122 339.046 242.701Z" fill="#03022B"/>
<path d="M358.403 241.933C359.485 242.257 357.234 239.985 355.936 240.061C355.362 240.061 354.812 240.289 354.406 240.695C354 241.101 353.772 241.651 353.772 242.225C355.235 241.593 356.872 241.49 358.403 241.933Z" fill="#03022B"/>
<path d="M344.186 255.577C344.186 255.577 351.143 251.93 354.454 257.578" stroke="#D97871" stroke-width="0.94" stroke-miterlimit="10"/>
<path d="M336.525 221.05C345.744 234.034 372.112 238.752 372.112 238.752C372.112 238.752 372.621 208.542 339.046 214.234C317.352 217.902 335.476 219.557 336.525 221.05Z" fill="black"/>
<path d="M339.295 220.087C339.295 220.087 332.305 235.765 330.304 238.6C328.02 241.846 323.022 239.596 323.022 239.596C323.022 239.596 320.198 217.804 339.295 220.087Z" fill="black"/>
<path d="M281.808 254.776C282.144 254.278 287.597 155.178 288.787 142.486C288.877 141.524 289.227 140.604 289.799 139.825C290.37 139.046 291.142 138.436 292.033 138.061L310.427 130.357C311.101 130.073 311.826 129.93 312.557 129.937C313.288 129.945 314.01 130.103 314.678 130.401C315.345 130.699 315.945 131.132 316.438 131.671C316.932 132.211 317.309 132.846 317.547 133.538C317.72 134.043 317.815 134.573 317.828 135.107L318.423 154.107C318.469 155.636 318.117 157.15 317.402 158.503C316.687 159.855 315.633 160.998 314.344 161.822L314.712 245.319L281.808 254.776Z" fill="#FDCAC6" stroke="#FDCAC6" stroke-width="2.16" stroke-linecap="round" stroke-linejoin="round"/>
<path d="M320.057 240.829C323.436 259.495 325.669 278.35 326.744 297.288C326.744 297.288 335.93 310.759 349.141 310.445C362.352 310.131 366.713 303.098 366.713 303.098L422.024 316.58L431.113 336.467C435.192 347.287 421.17 362.154 409.625 362.435L390.149 368.927C390.149 368.927 385.269 407.446 385.615 422.302L297.973 413.062L289.88 353.281C289.88 353.281 277.729 270.952 278.627 251.573L320.057 240.829Z" fill="#C8D7C2"/>
<path d="M318.304 145.256C317.904 145.256 305.482 149.93 297.541 152.927C296.746 153.228 295.895 153.352 295.047 153.291C294.2 153.23 293.375 152.985 292.632 152.573C291.889 152.161 291.244 151.592 290.742 150.906C290.241 150.22 289.895 149.433 289.728 148.599L288.646 142.692C288.646 142.692 288.289 139.684 291.892 138.212C294.056 137.325 303.362 133.441 310.395 130.498C311.294 130.121 312.273 129.975 313.243 130.072C314.212 130.169 315.143 130.508 315.949 131.056C316.755 131.604 317.411 132.345 317.859 133.211C318.306 134.077 318.53 135.041 318.51 136.016L318.304 145.256Z" fill="#FDBCB7"/>
<path d="M318.704 148.957L304.411 146.89C303.875 146.815 303.33 146.92 302.86 147.188C302.39 147.456 302.022 147.873 301.814 148.372C301.624 148.83 301.579 149.335 301.685 149.819C301.792 150.303 302.045 150.742 302.41 151.077L314.42 162.211C314.42 162.211 318.748 159.495 318.748 156.174L318.704 148.957Z" fill="#FDD0CD"/>
<path d="M407.829 364.22C403.226 364.893 398.531 364.544 394.079 363.197C389.627 361.85 385.525 359.539 382.067 356.428C378.609 353.316 375.879 349.482 374.07 345.196C372.262 340.91 371.419 336.279 371.603 331.631L373.367 287.095L420.564 280.203L433.602 323.808C434.903 328.165 435.251 332.751 434.622 337.255C433.993 341.758 432.402 346.074 429.957 349.908C427.512 353.742 424.27 357.005 420.452 359.474C416.633 361.944 412.328 363.563 407.829 364.22Z" fill="#FDBCB7"/>
<path d="M383.754 327.519C383.754 327.519 343.082 297.602 347.897 294.399C351.002 292.343 361.66 294.799 368.844 296.801C372.09 297.699 375.044 294.637 374.449 291.045C372.653 280.225 369.244 260.446 366.128 246.304C361.638 225.898 366.886 223.528 380.454 256.518C394.022 289.508 377.338 225.519 381.893 224.859C386.448 224.199 395.191 259.981 399.465 261.019C403.739 262.058 393.838 225.941 400.547 222.641C407.255 219.341 411.518 257.46 413.899 259.018C416.279 260.576 413.412 233.948 416.409 233.201C427.012 230.55 430.94 312.09 430.064 317.597C430.064 317.597 426.753 330.202 407.417 333.632C407.428 333.686 395.667 337.138 383.754 327.519Z" fill="#FDD0CD"/>
<path d="M72.34 115.763L72.43 115.493C72.43 114.893 71.92 114.563 70.9 114.503C69.64 113.723 68.29 112.403 66.85 110.543C65.41 108.623 64.51 107.153 64.15 106.133C63.97 105.653 63.88 105.323 63.88 105.143C63.88 104.843 64 104.633 64.24 104.513C64.48 104.333 64.78 104.183 65.14 104.063C65.5 103.883 65.77 103.763 65.95 103.703C67.03 102.983 67.84 102.623 68.38 102.623C68.98 102.623 69.49 103.013 69.91 103.793C70.75 105.293 72.1 106.553 73.96 107.573C75.82 108.533 77.89 109.013 80.17 109.013C82.21 109.013 84.04 108.653 85.66 107.933C87.22 107.213 88 106.163 88 104.783C88 103.763 87.55 102.533 86.65 101.093C86.53 100.733 86.32 100.403 86.02 100.103C85.72 99.803 85.36 99.503 84.94 99.203C83.98 98.483 82.93 97.553 81.79 96.413C80.83 96.053 79.84 95.573 78.82 94.973L76.93 94.073C75.43 93.353 73.75 92.213 71.89 90.653C70.03 89.033 68.74 87.533 68.02 86.153C66.7 84.893 66.04 82.973 66.04 80.393C66.04 77.573 66.7 74.933 68.02 72.473C68.74 70.853 70.48 68.363 73.24 65.003C76 61.643 78.04 59.543 79.36 58.703L81.7 56.453C81.76 56.213 81.85 56.093 81.97 56.093C82.09 56.033 82.18 56.003 82.24 56.003C82.42 55.883 83.05 55.613 84.13 55.193C85.21 54.713 86.35 53.903 87.55 52.763C91.21 50.963 94.45 49.703 97.27 48.983C100.15 48.203 102.55 47.813 104.47 47.813C106.81 47.933 108.97 48.773 110.95 50.333C112.99 51.893 114.16 53.693 114.46 55.733C114.58 56.333 114.64 56.813 114.64 57.173C114.64 59.393 113.74 61.883 111.94 64.643C110.14 67.403 108.22 69.353 106.18 70.493C105.28 70.913 104.41 71.123 103.57 71.123C102.55 71.123 101.71 70.853 101.05 70.313C100.45 69.773 100.18 69.083 100.24 68.243C100.24 67.703 100.42 67.103 100.78 66.443C101.2 65.723 102.1 64.583 103.48 63.023C105.52 60.023 106.54 57.863 106.54 56.543C106.54 55.643 106 55.103 104.92 54.923C104.26 54.743 102.46 55.013 99.52 55.733C96.64 56.393 95.2 56.873 95.2 57.173C95.2 57.233 95.17 57.353 95.11 57.533C95.11 57.653 95.02 57.683 94.84 57.623C94.6 57.563 92.89 58.553 89.71 60.593C86.59 62.633 84.97 63.803 84.85 64.103C84.79 64.403 84.55 64.733 84.13 65.093C83.77 65.393 83.32 65.663 82.78 65.903C81.7 66.563 80.71 67.463 79.81 68.603C78.97 69.743 77.86 71.543 76.48 74.003C75.76 75.023 75.16 76.133 74.68 77.333C74.26 78.533 74.05 79.613 74.05 80.573C74.05 81.233 74.14 81.803 74.32 82.283C74.56 83.183 75.19 84.023 76.21 84.803C77.29 85.523 79.33 86.783 82.33 88.583C85.39 90.323 88.15 92.183 90.61 94.163C93.07 96.083 94.57 97.613 95.11 98.753C96.07 100.133 96.55 101.933 96.55 104.153C96.55 105.893 96.31 107.543 95.83 109.103C95.29 110.243 94.6 111.293 93.76 112.253C92.92 113.273 92.17 113.753 91.51 113.693C90.91 113.873 90.4 114.083 89.98 114.323C89.56 114.623 89.2 114.833 88.9 114.953C88.18 115.373 86.32 115.793 83.32 116.213C80.38 116.693 77.92 116.903 75.94 116.843L72.34 115.763ZM122.819 114.773C122.579 115.013 122.339 115.133 122.099 115.133C121.799 115.133 121.289 114.953 120.569 114.593C119.549 114.353 118.649 113.843 117.869 113.063C117.149 112.343 116.789 111.503 116.789 110.543C116.789 110.303 116.909 109.823 117.149 109.103C117.689 108.083 119.069 103.073 121.289 94.073C122.309 90.113 122.819 88.133 122.819 88.133C122.819 88.073 122.939 87.143 123.179 85.343C123.359 84.443 123.629 82.793 123.989 80.393C124.709 79.013 125.189 77.513 125.429 75.893C125.729 74.213 125.909 73.253 125.969 73.013C126.389 71.333 126.689 70.283 126.869 69.863L127.679 66.713L128.219 64.643C128.639 63.143 128.849 62.183 128.849 61.763V60.323H125.519L124.079 60.413C123.119 60.413 122.369 60.383 121.829 60.323L118.679 60.233C115.859 60.113 113.969 59.843 113.009 59.423C112.049 58.943 111.539 58.043 111.479 56.723C111.239 55.523 111.839 54.593 113.279 53.933C114.719 53.213 117.659 52.913 122.099 53.033C122.939 52.973 124.079 52.943 125.519 52.943C126.959 52.943 128.129 52.973 129.029 53.033C129.929 53.093 130.439 53.123 130.559 53.123C130.739 52.943 130.889 52.703 131.009 52.403C131.129 52.103 131.219 51.863 131.279 51.683C131.279 50.663 131.609 50.033 132.269 49.793C132.629 49.013 133.379 48.623 134.519 48.623C135.179 48.623 135.839 48.773 136.499 49.073C137.159 49.373 137.669 49.793 138.029 50.333C138.149 50.633 138.209 51.173 138.209 51.953C138.209 52.733 138.389 53.303 138.749 53.663C138.989 53.423 139.769 53.273 141.089 53.213C142.409 53.153 143.339 53.093 143.879 53.033C145.019 53.033 146.189 53.003 147.389 52.943C148.589 52.823 149.399 52.763 149.819 52.763C150.359 52.463 151.199 52.313 152.339 52.313C152.879 52.313 153.629 52.373 154.589 52.493C155.789 52.493 156.659 52.763 157.199 53.303C157.739 53.783 158.219 54.353 158.639 55.013C158.639 55.673 158.789 56.153 159.089 56.453C159.329 56.633 159.449 56.813 159.449 56.993C159.449 57.113 159.329 57.383 159.089 57.803C158.669 58.343 157.589 58.613 155.849 58.613L153.959 58.703C152.639 58.823 151.679 58.883 151.079 58.883C148.439 59.423 145.379 59.753 141.899 59.873C139.439 59.873 138.209 60.113 138.209 60.593C137.849 60.593 137.159 62.543 136.139 66.443C135.779 67.883 135.389 69.203 134.969 70.403C134.609 71.543 134.309 72.323 134.069 72.743C134.249 72.983 134.339 73.253 134.339 73.553C134.339 73.853 134.159 74.513 133.799 75.533C133.619 76.193 133.409 76.853 133.169 77.513C132.929 78.113 132.809 78.593 132.809 78.953C132.749 79.193 132.569 79.793 132.269 80.753C132.029 81.653 131.819 82.673 131.639 83.813C131.339 86.693 130.949 88.373 130.469 88.853C130.409 88.973 130.259 89.213 130.019 89.573C129.839 89.933 129.749 90.323 129.749 90.743C129.749 91.583 129.539 93.083 129.119 95.243C128.699 97.343 128.369 98.483 128.129 98.663C128.309 98.663 128.399 98.843 128.399 99.203C128.399 99.623 128.219 100.253 127.859 101.093C127.859 101.573 127.769 102.143 127.589 102.803C127.409 103.463 127.319 103.913 127.319 104.153C126.719 105.833 125.879 107.963 124.799 110.543C123.719 113.123 123.059 114.533 122.819 114.773ZM154.611 114.143C152.271 112.403 150.471 110.843 149.211 109.463C147.951 108.083 147.291 106.763 147.231 105.503C147.171 105.203 147.141 104.663 147.141 103.883C147.141 102.203 147.291 100.103 147.591 97.583C147.891 95.063 148.191 93.053 148.491 91.553C148.731 91.313 148.851 90.953 148.851 90.473C148.911 89.993 148.911 89.693 148.851 89.573C148.851 89.393 149.001 88.793 149.301 87.773C150.021 85.553 150.531 83.693 150.831 82.193C152.451 77.273 154.041 73.343 155.601 70.403C157.161 67.463 158.901 64.703 160.821 62.123C164.901 57.923 169.251 54.743 173.871 52.583C176.211 51.203 177.891 50.513 178.911 50.513C179.091 50.513 179.361 50.573 179.721 50.693C187.101 52.313 191.511 56.993 192.951 64.733C193.491 68.393 193.761 71.153 193.761 73.013C193.761 76.013 193.221 79.043 192.141 82.103C191.061 85.163 189.111 89.003 186.291 93.623C183.891 98.423 181.161 102.533 178.101 105.953C175.101 109.313 172.071 111.833 169.011 113.513C166.011 115.193 163.191 116.033 160.551 116.033C158.211 116.033 156.231 115.403 154.611 114.143ZM161.811 108.203C163.251 108.023 164.361 107.753 165.141 107.393C165.981 107.033 166.821 106.433 167.661 105.593C168.561 104.693 170.001 103.103 171.981 100.823C174.501 97.943 176.271 95.843 177.291 94.523C178.311 93.143 179.241 91.433 180.081 89.393C180.981 87.353 181.971 84.413 183.051 80.573L183.591 78.503C183.951 77.243 184.191 76.223 184.311 75.443C184.491 74.603 184.581 73.703 184.581 72.743L184.491 67.073C184.431 65.993 184.221 64.823 183.861 63.563C183.501 62.303 183.081 61.403 182.601 60.863C182.121 60.323 181.461 59.873 180.621 59.513C179.841 59.093 179.031 58.883 178.191 58.883C177.591 58.883 176.901 59.033 176.121 59.333C174.981 59.813 173.391 61.103 171.351 63.203C169.311 65.243 167.481 67.343 165.861 69.503C164.301 71.663 163.521 73.103 163.521 73.823C163.521 73.883 163.491 74.063 163.431 74.363C163.371 74.663 163.251 74.933 163.071 75.173C161.511 76.853 159.921 80.393 158.301 85.793C156.741 91.193 155.841 95.903 155.601 99.923C155.541 101.663 155.541 102.863 155.601 103.523C155.721 104.183 156.051 104.933 156.591 105.773C157.011 106.433 157.761 107.063 158.841 107.663C159.981 108.203 160.971 108.383 161.811 108.203ZM194.291 117.023C194.171 116.963 193.691 116.753 192.851 116.393C192.071 116.093 191.381 115.703 190.781 115.223C190.181 114.743 189.881 114.263 189.881 113.783C189.761 113.543 189.761 113.093 189.881 112.433C190.001 111.773 190.301 110.603 190.781 108.923L191.321 106.943C191.861 105.203 192.131 104.303 192.131 104.243C192.191 104.303 192.281 104.333 192.401 104.333C192.941 104.333 193.211 103.613 193.211 102.173C193.151 101.933 193.211 101.543 193.391 101.003C193.631 100.463 193.901 99.923 194.201 99.383C194.201 98.963 194.441 97.433 194.921 94.793C196.241 90.413 197.831 86.363 199.691 82.643C199.751 82.163 199.961 81.473 200.321 80.573C200.681 79.673 200.951 79.103 201.131 78.863C201.251 77.963 201.581 76.823 202.121 75.443C202.661 74.003 203.201 73.043 203.741 72.563C203.741 71.903 204.251 70.433 205.271 68.153C206.291 65.873 206.891 64.733 207.071 64.733C207.071 64.673 207.131 64.463 207.251 64.103C207.431 63.683 207.761 63.143 208.241 62.483C208.241 62.183 208.301 61.793 208.421 61.313C208.541 60.833 208.811 60.443 209.231 60.143C209.291 59.963 209.381 59.603 209.501 59.063C209.621 58.523 209.651 58.163 209.591 57.983C209.591 57.803 209.531 57.683 209.411 57.623C209.291 57.323 209.231 56.963 209.231 56.543C209.231 55.703 209.771 55.253 210.851 55.193C211.211 55.193 211.631 54.683 212.111 53.663C212.351 53.183 213.011 52.763 214.091 52.403C215.171 52.043 216.731 51.653 218.771 51.233L223.541 50.423C224.561 50.423 225.701 50.483 226.961 50.603C228.221 50.723 229.241 50.873 230.021 51.053C232.241 52.133 234.161 53.633 235.781 55.553C237.461 57.413 238.301 59.063 238.301 60.503C238.301 62.303 237.581 65.213 236.141 69.233C234.761 73.253 233.561 75.653 232.541 76.433C232.841 76.433 232.721 76.763 232.181 77.423C231.641 78.083 230.951 78.773 230.111 79.493C229.331 80.213 228.731 80.633 228.311 80.753C228.311 80.873 228.071 81.293 227.591 82.013C227.111 82.733 226.541 83.273 225.881 83.633C225.701 83.753 225.071 84.143 223.991 84.803C222.911 85.463 222.101 86.213 221.561 87.053C221.561 86.753 221.471 86.603 221.291 86.603C221.051 86.603 220.691 86.813 220.211 87.233C219.791 87.593 219.461 87.833 219.221 87.953C217.961 88.733 216.911 89.243 216.071 89.483C215.231 89.723 213.941 89.993 212.201 90.293C211.781 90.653 210.701 90.833 208.961 90.833L205.631 90.383L203.741 95.783C202.901 98.423 201.941 101.183 200.861 104.063C200.621 104.663 200.201 105.803 199.601 107.483C199.001 109.103 198.431 110.843 197.891 112.703C197.711 113.723 197.381 114.593 196.901 115.313C196.481 116.093 196.001 116.633 195.461 116.933C194.981 117.233 194.591 117.263 194.291 117.023ZM208.871 83.453C211.571 83.213 213.641 82.733 215.081 82.013C216.581 81.293 218.291 80.003 220.211 78.143C220.451 77.903 221.381 76.973 223.001 75.353C224.681 73.733 226.091 72.143 227.231 70.583C228.851 68.183 229.661 65.723 229.661 63.203C229.661 62.003 229.451 60.983 229.031 60.143C227.951 58.583 226.481 57.803 224.621 57.803C223.001 57.803 221.261 58.343 219.401 59.423C218.801 59.663 217.571 61.643 215.711 65.363C213.911 69.023 212.261 72.803 210.761 76.703C209.321 80.543 208.691 82.793 208.871 83.453Z" fill="#FF4F4D"/>
<path d="M85.334 155.796C84.25 157.349 82.7339 158.514 80.7856 159.29C78.8521 160.052 76.5962 160.432 74.0181 160.432C71.4106 160.432 69.0962 159.825 67.0747 158.609C65.0532 157.378 63.4858 155.635 62.3726 153.379C61.2739 151.123 60.71 148.509 60.6807 145.535V142.745C60.6807 137.925 61.8013 134.19 64.0425 131.538C66.2983 128.887 69.4624 127.561 73.5347 127.561C76.8745 127.561 79.5625 128.418 81.5986 130.132C83.6348 131.831 84.8799 134.248 85.334 137.383H81.1152C80.3242 133.15 77.8047 131.033 73.5566 131.033C70.7295 131.033 68.5835 132.029 67.1187 134.021C65.6685 135.999 64.936 138.87 64.9214 142.635V145.249C64.9214 148.838 65.7417 151.695 67.3823 153.819C69.0229 155.928 71.2422 156.983 74.04 156.983C75.6221 156.983 77.0063 156.807 78.1929 156.455C79.3794 156.104 80.3608 155.511 81.1372 154.676V147.491H73.7324V144.063H85.334V155.796ZM110.471 145.205H96.606V156.543H112.712V159.993H92.3872V128.001H112.492V131.473H96.606V141.756H110.471V145.205ZM142.551 159.993H138.31L122.204 135.34V159.993H117.963V128.001H122.204L138.354 152.764V128.001H142.551V159.993ZM150.043 159.993V128.001H159.074C161.857 128.001 164.318 128.616 166.457 129.847C168.596 131.077 170.244 132.828 171.401 135.098C172.573 137.369 173.166 139.976 173.181 142.92V144.964C173.181 147.981 172.595 150.625 171.423 152.896C170.266 155.166 168.603 156.91 166.435 158.125C164.282 159.341 161.77 159.964 158.898 159.993H150.043ZM154.262 131.473V156.543H158.701C161.953 156.543 164.479 155.533 166.281 153.511C168.098 151.49 169.006 148.611 169.006 144.876V143.008C169.006 139.375 168.149 136.556 166.435 134.549C164.736 132.527 162.319 131.502 159.184 131.473H154.262ZM197.658 145.205H183.793V156.543H199.899V159.993H179.575V128.001H199.68V131.473H183.793V141.756H197.658V145.205ZM216.884 147.051H209.37V159.993H205.129V128.001H215.72C219.323 128.001 222.092 128.821 224.025 130.462C225.974 132.102 226.948 134.49 226.948 137.625C226.948 139.617 226.406 141.353 225.322 142.832C224.252 144.312 222.758 145.418 220.839 146.15L228.354 159.729V159.993H223.828L216.884 147.051ZM209.37 143.601H215.852C217.946 143.601 219.609 143.059 220.839 141.975C222.084 140.891 222.707 139.441 222.707 137.625C222.707 135.647 222.114 134.131 220.927 133.077C219.755 132.022 218.056 131.487 215.83 131.473H209.37V143.601Z" fill="black"/>
<path d="M37.8252 203.153L38.001 203.834L38.1987 203.153L48.2622 175.116H51.2285L39.3193 207.108H36.7266L24.8174 175.116H27.7617L37.8252 203.153ZM59.2485 207.108H56.5459V175.116H59.2485V207.108ZM91.5923 192.848C91.5923 195.792 91.0796 198.378 90.0542 200.604C89.0435 202.831 87.5933 204.545 85.7036 205.746C83.814 206.947 81.6313 207.547 79.1558 207.547C75.4204 207.547 72.4028 206.214 70.103 203.548C67.8032 200.868 66.6533 197.257 66.6533 192.716V189.42C66.6533 186.505 67.166 183.927 68.1914 181.686C69.2314 179.43 70.6963 177.701 72.5859 176.5C74.4756 175.284 76.6509 174.676 79.1118 174.676C81.5728 174.676 83.7407 175.27 85.6157 176.456C87.5054 177.643 88.9629 179.32 89.9883 181.488C91.0137 183.656 91.5483 186.168 91.5923 189.025V192.848ZM88.8896 189.376C88.8896 185.524 88.0181 182.506 86.2749 180.323C84.5317 178.141 82.144 177.049 79.1118 177.049C76.1382 177.049 73.7651 178.148 71.9927 180.345C70.2349 182.528 69.356 185.582 69.356 189.508V192.848C69.356 196.642 70.2349 199.652 71.9927 201.879C73.7505 204.09 76.1382 205.196 79.1558 205.196C82.2173 205.196 84.605 204.105 86.3188 201.922C88.0327 199.725 88.8896 196.671 88.8896 192.76V189.376ZM101.128 204.823H116.927V207.108H98.4038V175.116H101.128V204.823ZM139.8 191.771H124.837V204.823H142.042V207.108H122.134V175.116H141.932V177.423H124.837V189.486H139.8V191.771ZM171.573 207.108H168.87L150.479 179.73V207.108H147.754V175.116H150.479L168.892 202.516V175.116H171.573V207.108ZM202.356 197.132C201.99 200.502 200.782 203.08 198.731 204.867C196.695 206.654 193.978 207.547 190.579 207.547C188.206 207.547 186.104 206.954 184.273 205.768C182.457 204.581 181.05 202.904 180.054 200.736C179.058 198.553 178.553 196.063 178.538 193.265V189.112C178.538 186.271 179.036 183.751 180.032 181.554C181.028 179.357 182.457 177.665 184.317 176.478C186.192 175.277 188.345 174.676 190.777 174.676C194.205 174.676 196.907 175.607 198.885 177.467C200.877 179.313 202.034 181.869 202.356 185.135H199.632C198.958 179.701 196.006 176.984 190.777 176.984C187.876 176.984 185.562 178.068 183.833 180.235C182.12 182.403 181.263 185.399 181.263 189.222V193.133C181.263 196.825 182.098 199.769 183.768 201.966C185.452 204.164 187.723 205.262 190.579 205.262C193.406 205.262 195.538 204.589 196.973 203.241C198.409 201.879 199.295 199.842 199.632 197.132H202.356ZM226.592 191.771H211.629V204.823H228.833V207.108H208.926V175.116H228.724V177.423H211.629V189.486H226.592V191.771Z" fill="black"/>
</g>
<defs>
<clipPath id="clip0">
<rect width="541" height="541" fill="white" transform="translate(24 0.993042)"/>
</clipPath>
</defs>
</svg>
